<?xml version="1.0" standalone="no"?>
<!DOCTYPE svg PUBLIC "-//W3C//DTD SVG 20010904//EN"
 "http://www.w3.org/TR/2001/REC-SVG-20010904/DTD/svg10.dtd">
<svg version="1.0" xmlns="http://www.w3.org/2000/svg"
 width="1006.000000pt" height="1006.000000pt" viewBox="0 0 1006.000000 1006.000000"
 preserveAspectRatio="xMidYMid meet">
<metadata>
Created by potrace 1.14, written by Peter Selinger 2001-2017
</metadata>
<g transform="translate(0.000000,1006.000000) scale(0.100000,-0.100000)"
fill="#000000" stroke="none">
<path d="M4940 10040 c-437 -77 -747 -282 -949 -625 -160 -272 -214 -586 -166
-960 9 -64 52 -226 74 -278 11 -26 21 -51 22 -55 1 -4 17 -41 36 -82 105 -225
292 -432 498 -551 113 -66 276 -127 384 -145 14 -2 44 -7 66 -11 67 -13 364
-8 440 6 39 8 77 15 85 16 171 31 387 127 539 240 62 46 218 214 264 285 52
80 131 230 121 230 -3 0 2 13 11 29 13 27 58 186 70 250 11 58 19 181 19 271
-1 508 -237 970 -621 1216 -108 69 -256 131 -371 155 -26 5 -58 12 -72 15 -14
2 -97 6 -185 8 -124 3 -183 0 -265 -14z"/>
<path d="M8077 8614 c-1 -1 -36 -4 -78 -8 -135 -11 -347 -74 -491 -147 -66
-33 -203 -124 -282 -187 -104 -83 -305 -287 -433 -438 -23 -27 -51 -60 -63
-74 -12 -14 -38 -45 -58 -69 -115 -137 -188 -217 -312 -342 -191 -192 -308
-284 -492 -383 -129 -70 -261 -116 -428 -150 -143 -29 -421 -24 -605 10 -10 2
-37 6 -59 10 -22 3 -44 7 -47 10 -4 2 -23 6 -42 8 -19 3 -120 26 -223 51 -104
26 -196 48 -204 50 -8 2 -62 16 -120 30 -128 32 -326 71 -398 80 -358 43 -641
-1 -875 -137 -26 -15 -52 -28 -57 -28 -4 0 -10 -3 -12 -7 -1 -5 -30 -26 -63
-48 -84 -56 -270 -245 -330 -335 -114 -172 -189 -369 -212 -561 -16 -129 -5
-350 22 -469 1 -3 5 -21 9 -40 31 -142 138 -371 237 -508 61 -86 181 -213 263
-280 110 -91 313 -197 431 -226 6 -2 17 -6 25 -9 118 -46 443 -55 612 -18 24
6 54 12 68 15 14 2 50 13 80 24 30 10 61 21 69 23 42 12 218 105 292 155 164
111 369 299 579 533 107 118 108 119 185 207 88 100 366 378 424 424 24 19 48
40 55 45 65 58 258 181 350 224 158 73 299 113 456 128 140 14 362 4 490 -22
14 -2 41 -7 60 -10 65 -11 214 -46 370 -87 395 -104 559 -141 680 -154 25 -2
56 -7 70 -9 33 -6 276 -7 317 -1 311 47 515 153 745 387 198 203 327 460 365
729 10 67 10 306 1 375 -44 327 -206 649 -440 870 -98 92 -106 99 -173 142
-27 18 -55 36 -61 41 -22 19 -182 92 -254 116 -97 32 -231 55 -348 59 -50 2
-93 3 -95 1z"/>
<path d="M6498 5695 c-2 -2 -37 -6 -78 -9 -266 -24 -579 -159 -800 -344 -140
-118 -272 -254 -425 -437 -27 -33 -52 -62 -55 -65 -3 -3 -23 -27 -45 -55 -22
-27 -45 -56 -52 -63 -7 -7 -29 -34 -50 -60 -96 -119 -266 -299 -380 -404 -50
-45 -180 -142 -248 -185 -100 -63 -293 -151 -367 -168 -13 -2 -50 -11 -83 -20
-33 -8 -87 -18 -120 -22 -78 -10 -323 -10 -400 0 -33 4 -78 10 -100 12 -37 5
-103 17 -165 29 -14 3 -38 8 -55 12 -16 3 -181 43 -365 89 -323 80 -446 108
-527 121 -21 3 -49 7 -63 10 -106 18 -321 24 -440 11 -266 -28 -518 -165 -715
-388 -103 -116 -160 -201 -216 -319 -23 -47 -44 -92 -48 -100 -10 -19 -59
-185 -66 -225 -15 -79 -20 -151 -20 -275 0 -164 9 -232 46 -370 24 -89 81
-235 117 -299 14 -25 31 -55 36 -66 80 -146 268 -348 419 -448 159 -106 284
-155 512 -202 47 -10 274 -13 340 -4 299 37 541 153 825 394 19 16 103 97 185
180 136 137 188 193 355 380 332 371 567 570 826 699 96 48 230 97 296 110 13
2 34 7 48 10 69 15 108 19 265 21 148 3 299 -8 405 -29 120 -23 193 -40 445
-101 200 -49 290 -70 340 -79 68 -14 83 -17 140 -26 201 -34 468 -34 620 0
239 54 478 186 659 365 116 114 178 202 251 350 89 182 123 328 129 545 2 91
-16 260 -34 324 -7 22 -14 48 -16 59 -27 143 -143 374 -268 537 -197 257 -482
432 -786 485 -76 13 -264 27 -272 20z"/>
<path d="M4725 2710 c-308 -52 -560 -174 -745 -360 -93 -94 -99 -100 -151
-180 -42 -64 -122 -220 -113 -220 4 0 2 -6 -3 -12 -13 -17 -51 -143 -58 -194
-3 -21 -8 -45 -11 -53 -16 -47 -22 -269 -11 -386 33 -349 205 -719 442 -951
63 -62 166 -144 220 -177 118 -71 253 -125 381 -153 89 -20 309 -27 394 -13
30 5 72 11 94 14 57 9 193 50 282 85 303 121 557 352 683 622 90 194 124 349
125 568 1 163 -5 234 -30 340 -8 36 -17 76 -20 90 -12 56 -86 237 -129 315
-60 110 -152 233 -239 321 -190 190 -379 288 -671 350 -76 16 -331 12 -440 -6z"/>
</g>
</svg>
